<mxfile host="65bd71144e">
    <diagram id="NiNxVzOrU89Tih4gGizK" name="Page-1">
        <mxGraphModel dx="523" dy="727" grid="1" gridSize="10" guides="1" tooltips="1" connect="1" arrows="1" fold="1" page="1" pageScale="1" pageWidth="827" pageHeight="1169" math="0" shadow="0">
            <root>
                <mxCell id="0"/>
                <mxCell id="1" parent="0"/>
                <mxCell id="4" value="" style="edgeStyle=none;html=1;" edge="1" parent="1" source="2" target="3">
                    <mxGeometry relative="1" as="geometry"/>
                </mxCell>
                <mxCell id="2" value="学习运用内在诀窍：&lt;br&gt;不要把精力放在纠正一个一个的细节上，只需要具有意识。接受事实是第一步，只要意识到它即可。不要做出判断，不要急于拿出方案，不要指责&lt;br&gt;尝试培养非判断性的意识：不要想着来纠正，但是在出错时要知道，然后再采取行动纠正" style="rounded=1;whiteSpace=wrap;html=1;" vertex="1" parent="1">
                    <mxGeometry x="80" y="110" width="500" height="110" as="geometry"/>
                </mxCell>
                <mxCell id="6" style="edgeStyle=none;html=1;exitX=0.5;exitY=1;exitDx=0;exitDy=0;entryX=0.5;entryY=0;entryDx=0;entryDy=0;" edge="1" parent="1" source="3" target="5">
                    <mxGeometry relative="1" as="geometry"/>
                </mxCell>
                <mxCell id="3" value="尝试会失败，认知会弥补" style="rounded=1;whiteSpace=wrap;html=1;" vertex="1" parent="1">
                    <mxGeometry x="200" y="300" width="260" height="60" as="geometry"/>
                </mxCell>
                <mxCell id="5" value="允许失败会促进成功&lt;br&gt;你无需主动犯错误，只是一旦犯了，那也没什么" style="rounded=1;whiteSpace=wrap;html=1;" vertex="1" parent="1">
                    <mxGeometry x="225" y="470" width="210" height="60" as="geometry"/>
                </mxCell>
            </root>
        </mxGraphModel>
    </diagram>
</mxfile>
